<svg xmlns="http://www.w3.org/2000/svg" viewBox="0 0 255.6 206.9"><path d="M161.8.7H70.6c-8.6 0-16.5 4.6-20.8 12l-45.6 79c-4.3 7.4-4.3 16.6 0 24l45.6 79c4.3 7.4 12.2 12 20.8 12h91.3c8.6 0 16.5-4.6 20.8-12l45.6-79c4.3-7.4 4.3-16.6 0-24l-45.6-79c-4.4-7.4-12.3-12-20.9-12z" fill="#ffd46a"/><path opacity=".8" fill="#04b3a3" d="M30.5 138.5h224.9v31.8H30.5z"/><path d="M48 159.7c.6 0 1.1-.1 1.5-.3.5-.2.8-.5 1.1-.8.3-.3.6-.8.7-1.3.2-.5.2-1 .2-1.6v-8.4h1.9v8.4c0 .8-.1 1.5-.4 2.2s-.6 1.3-1.1 1.8c-.5.5-1.1.9-1.7 1.2-.7.3-1.5.4-2.3.4s-1.6-.1-2.3-.4c-.7-.3-1.3-.7-1.7-1.2s-.8-1.1-1.1-1.8-.4-1.4-.4-2.2v-8.4h1.9v8.4c0 .6.1 1.1.2 1.6.2.5.4.9.7 1.3s.7.6 1.2.8c.5.2 1 .3 1.6.3zm11-12.3c.1 0 .2.1.3.3l8.1 10.5v-10.8H69v13.9h-1c-.1 0-.3 0-.4-.1-.1-.1-.2-.1-.3-.3l-8-10.5v10.8h-1.6v-13.9h1c.1 0 .3 0 .3.1zm23.8-.1v1.6h-4.5v12.3h-1.9v-12.3h-4.5v-1.6h10.9zm5.1 13.9H86v-13.9h1.9v13.9zm6.6-1.6h6v1.6h-7.9v-13.9h1.9v12.3zm23.5-1.3c.1 0 .2 0 .3.1l.7.8c-.6.7-1.3 1.2-2.1 1.5-.8.4-1.8.6-2.9.6-1 0-1.9-.2-2.7-.5-.8-.3-1.5-.8-2.1-1.5-.6-.6-1-1.4-1.3-2.2-.3-.9-.5-1.8-.5-2.9s.2-2 .5-2.9c.3-.9.8-1.6 1.4-2.2.6-.6 1.3-1.1 2.2-1.5.9-.3 1.8-.5 2.8-.5 1 0 1.9.2 2.6.5.7.3 1.4.7 2 1.3l-.6.9c0 .1-.1.1-.2.2-.1 0-.1.1-.3.1-.1 0-.2 0-.3-.1s-.2-.1-.3-.2c-.1-.1-.3-.2-.5-.3l-.6-.3c-.2-.1-.5-.2-.8-.2-.3-.1-.7-.1-1.1-.1-.7 0-1.4.1-2 .4-.6.3-1.1.6-1.6 1.1s-.8 1-1 1.7-.4 1.4-.4 2.3c0 .9.1 1.6.4 2.3s.6 1.3 1 1.7.9.8 1.5 1.1c.6.2 1.2.4 1.9.4.4 0 .8 0 1.1-.1.3 0 .6-.1.9-.2s.5-.2.8-.4c.2-.2.5-.3.7-.6.3-.2.4-.3.5-.3zm17.4-4.1c0 1-.2 2-.5 2.9-.3.9-.8 1.6-1.4 2.2-.6.6-1.3 1.1-2.2 1.5-.8.3-1.8.5-2.8.5-1 0-2-.2-2.8-.5-.8-.3-1.6-.8-2.2-1.5-.6-.6-1.1-1.4-1.4-2.2-.3-.9-.5-1.8-.5-2.9s.2-2 .5-2.9c.3-.9.8-1.6 1.4-2.2.6-.6 1.3-1.1 2.2-1.5.8-.3 1.8-.5 2.8-.5 1 0 2 .2 2.8.5.8.3 1.6.8 2.2 1.5.6.6 1.1 1.4 1.4 2.2.3.9.5 1.9.5 2.9zm-2 0c0-.9-.1-1.6-.3-2.3-.2-.7-.6-1.3-1-1.7-.4-.5-.9-.8-1.6-1.1-.6-.3-1.3-.4-2-.4s-1.4.1-2 .4c-.6.3-1.1.6-1.6 1.1-.4.5-.8 1-1 1.7s-.3 1.4-.3 2.3.1 1.6.3 2.3.6 1.2 1 1.7.9.8 1.6 1.1c.6.2 1.3.4 2 .4.8 0 1.4-.1 2-.4.6-.2 1.1-.6 1.6-1.1.4-.5.8-1 1-1.7.2-.6.3-1.4.3-2.3zm6.8-6.8c.1 0 .2.1.3.3l8.1 10.5v-10.8h1.6v13.9h-1c-.1 0-.3 0-.4-.1-.1-.1-.2-.1-.3-.3l-8-10.5v10.8h-1.6v-13.9h1c.1 0 .3 0 .3.1zm22.9-.1v1.5h-6.7v4.9h5.7v1.5h-5.7v6h-1.9v-13.9h8.6zm11.9 0v1.5h-6.7v4.6h5.4v1.5h-5.4v4.7h6.7v1.5h-8.6v-13.9h8.6zm5.7 8.1v5.8h-1.9v-13.9h3.9c.9 0 1.6.1 2.3.3.6.2 1.2.4 1.6.8s.7.7.9 1.2c.2.5.3 1 .3 1.6 0 .5-.1 1-.2 1.4s-.4.8-.7 1.1c-.3.3-.7.6-1.1.9s-.9.4-1.4.5c.2.1.4.3.6.6l4.1 5.5h-1.7c-.3 0-.6-.1-.8-.4l-3.6-5c-.1-.2-.2-.3-.4-.3-.1-.1-.3-.1-.6-.1h-1.3zm0-1.4h2c.5 0 1-.1 1.5-.2s.8-.3 1-.6.5-.5.6-.9c.1-.3.2-.7.2-1.1 0-.8-.3-1.5-.8-1.9-.5-.4-1.4-.6-2.4-.6h-2.1v5.3zm20-6.7v1.5H194v4.6h5.4v1.5H194v4.7h6.7v1.5h-8.6v-13.9h8.6zm5 .1c.1 0 .2.1.3.3l8.1 10.5v-10.8h1.6v13.9h-1c-.1 0-.3 0-.4-.1-.1-.1-.2-.1-.3-.3l-8-10.5v10.8h-1.6v-13.9h1c.1 0 .2 0 .3.1zm24 10.9c.1 0 .2 0 .3.1l.7.8c-.6.7-1.3 1.2-2.1 1.5-.8.4-1.8.6-2.9.6-1 0-1.9-.2-2.7-.5-.8-.3-1.5-.8-2.1-1.5-.6-.6-1-1.4-1.3-2.2-.3-.9-.5-1.8-.5-2.9s.2-2 .5-2.9c.3-.9.8-1.6 1.4-2.2.6-.6 1.3-1.1 2.2-1.5.9-.3 1.8-.5 2.8-.5 1 0 1.9.2 2.6.5.7.3 1.4.7 2 1.3l-.6.9c0 .1-.1.1-.2.2-.1 0-.1.1-.3.1-.1 0-.2 0-.3-.1s-.2-.1-.3-.2c-.1-.1-.3-.2-.5-.3l-.6-.3c-.2-.1-.5-.2-.8-.2-.3-.1-.7-.1-1.1-.1-.7 0-1.4.1-2 .4-.6.3-1.1.6-1.6 1.1s-.8 1-1 1.7-.4 1.4-.4 2.3c0 .9.1 1.6.4 2.3s.6 1.3 1 1.7.9.8 1.5 1.1c.6.2 1.2.4 1.9.4.4 0 .8 0 1.1-.1.3 0 .6-.1.9-.2s.5-.2.8-.4c.2-.2.5-.3.7-.6.3-.2.4-.3.5-.3zm13.1-11v1.5h-6.7v4.6h5.4v1.5h-5.4v4.7h6.7v1.5h-8.6v-13.9h8.6z" fill="#fff"/></svg>