<svg data-name="Layer 1" xmlns="http://www.w3.org/2000/svg" viewBox="0 0 255.6 206.94"><path d="M161.82.74H70.57a24 24 0 0 0-20.8 12l-45.63 79a24.05 24.05 0 0 0 0 24l45.63 79a24 24 0 0 0 20.8 12h91.25a24 24 0 0 0 20.8-12l45.62-79a24 24 0 0 0 0-24l-45.62-79a24 24 0 0 0-20.8-12z" fill="#ffd46a"/><path fill="#04b3a3" opacity=".8" d="M30.46 138.47h224.86v31.77H30.46z"/><text transform="translate(40.89 161.19)" font-size="19.4" fill="#fff" font-family="Lato-Regular,Lato" letter-spacing=".05em">UNTIL CONFERENCE</text></svg>