<svg id="Layer_1" data-name="Layer 1" xmlns="http://www.w3.org/2000/svg" viewBox="0 0 255.6 206.94"><defs><style>.cls-1{fill:#ffd46a;}.cls-2{fill:#04b3a3;opacity:0.8;}.cls-3{font-size:19.4px;fill:#fff;font-family:Lato-Regular, Lato;letter-spacing:0.05em;}</style></defs><title>counter-background</title><path class="cls-1" d="M161.82.74H70.57a24,24,0,0,0-20.8,12l-45.63,79a24.05,24.05,0,0,0,0,24l45.63,79a24,24,0,0,0,20.8,12h91.25a24,24,0,0,0,20.8-12l45.62-79a24,24,0,0,0,0-24l-45.62-79A24,24,0,0,0,161.82.74Z"/><rect class="cls-2" x="30.46" y="138.47" width="224.86" height="31.77"/><text class="cls-3" transform="translate(40.89 161.19)">UNTIL CONFERENCE</text></svg>