<?xml version="1.0" encoding="utf-8"?>
<!-- Generator: Adobe Illustrator 22.1.0, SVG Export Plug-In . SVG Version: 6.00 Build 0)  -->
<!DOCTYPE svg PUBLIC "-//W3C//DTD SVG 1.1//EN" "http://www.w3.org/Graphics/SVG/1.1/DTD/svg11.dtd">
<svg version="1.1" id="Layer_1" xmlns="http://www.w3.org/2000/svg" xmlns:xlink="http://www.w3.org/1999/xlink" x="0px" y="0px"
	 viewBox="0 0 255.6 206.9" style="enable-background:new 0 0 255.6 206.9;" xml:space="preserve">
<style type="text/css">
	.st0{fill:#FFD46A;}
	.st1{opacity:0.8;fill:#04B3A3;enable-background:new    ;}
	.st2{enable-background:new    ;}
	.st3{fill:#FFFFFF;}
</style>
<title>counter-background</title>
<path class="st0" d="M161.8,0.7H70.6c-8.6,0-16.5,4.6-20.8,12l-45.6,79c-4.3,7.4-4.3,16.6,0,24l45.6,79c4.3,7.4,12.2,12,20.8,12
	h91.3c8.6,0,16.5-4.6,20.8-12l45.6-79c4.3-7.4,4.3-16.6,0-24l-45.6-79C178.3,5.3,170.4,0.7,161.8,0.7z"/>
<rect x="30.5" y="138.5" class="st1" width="224.9" height="31.8"/>
<g class="st2">
	<path class="st3" d="M48,159.7c0.6,0,1.1-0.1,1.5-0.3c0.5-0.2,0.8-0.5,1.1-0.8c0.3-0.3,0.6-0.8,0.7-1.3c0.2-0.5,0.2-1,0.2-1.6v-8.4
		h1.9v8.4c0,0.8-0.1,1.5-0.4,2.2s-0.6,1.3-1.1,1.8c-0.5,0.5-1.1,0.9-1.7,1.2c-0.7,0.3-1.5,0.4-2.3,0.4s-1.6-0.1-2.3-0.4
		c-0.7-0.3-1.3-0.7-1.7-1.2s-0.8-1.1-1.1-1.8s-0.4-1.4-0.4-2.2v-8.4h1.9v8.4c0,0.6,0.1,1.1,0.2,1.6c0.2,0.5,0.4,0.9,0.7,1.3
		s0.7,0.6,1.2,0.8C46.9,159.6,47.4,159.7,48,159.7z"/>
	<path class="st3" d="M59,147.4c0.1,0,0.2,0.1,0.3,0.3l8.1,10.5c0-0.2,0-0.3,0-0.5c0-0.2,0-0.3,0-0.5v-9.8H69v13.9h-1
		c-0.1,0-0.3,0-0.4-0.1c-0.1-0.1-0.2-0.1-0.3-0.3l-8-10.5c0,0.2,0,0.3,0,0.5c0,0.2,0,0.3,0,0.4v9.9h-1.6v-13.9h1
		C58.8,147.3,59,147.3,59,147.4z"/>
	<path class="st3" d="M82.8,147.3v1.6h-4.5v12.3h-1.9v-12.3h-4.5v-1.6H82.8z"/>
	<path class="st3" d="M87.9,161.2h-1.9v-13.9h1.9V161.2z"/>
	<path class="st3" d="M94.5,159.6h6v1.6h-7.9v-13.9h1.9V159.6z"/>
	<path class="st3" d="M118,158.3c0.1,0,0.2,0,0.3,0.1l0.7,0.8c-0.6,0.7-1.3,1.2-2.1,1.5c-0.8,0.4-1.8,0.6-2.9,0.6
		c-1,0-1.9-0.2-2.7-0.5c-0.8-0.3-1.5-0.8-2.1-1.5c-0.6-0.6-1-1.4-1.3-2.2c-0.3-0.9-0.5-1.8-0.5-2.9s0.2-2,0.5-2.9
		c0.3-0.9,0.8-1.6,1.4-2.2c0.6-0.6,1.3-1.1,2.2-1.5c0.9-0.3,1.8-0.5,2.8-0.5c1,0,1.9,0.2,2.6,0.5c0.7,0.3,1.4,0.7,2,1.3l-0.6,0.9
		c0,0.1-0.1,0.1-0.2,0.2c-0.1,0-0.1,0.1-0.3,0.1c-0.1,0-0.2,0-0.3-0.1s-0.2-0.1-0.3-0.2c-0.1-0.1-0.3-0.2-0.5-0.3s-0.4-0.2-0.6-0.3
		s-0.5-0.2-0.8-0.2c-0.3-0.1-0.7-0.1-1.1-0.1c-0.7,0-1.4,0.1-2,0.4c-0.6,0.3-1.1,0.6-1.6,1.1s-0.8,1-1,1.7s-0.4,1.4-0.4,2.3
		c0,0.9,0.1,1.6,0.4,2.3s0.6,1.3,1,1.7s0.9,0.8,1.5,1.1c0.6,0.2,1.2,0.4,1.9,0.4c0.4,0,0.8,0,1.1-0.1c0.3,0,0.6-0.1,0.9-0.2
		s0.5-0.2,0.8-0.4c0.2-0.2,0.5-0.3,0.7-0.6C117.8,158.4,117.9,158.3,118,158.3z"/>
	<path class="st3" d="M135.4,154.2c0,1-0.2,2-0.5,2.9c-0.3,0.9-0.8,1.6-1.4,2.2c-0.6,0.6-1.3,1.1-2.2,1.5c-0.8,0.3-1.8,0.5-2.8,0.5
		c-1,0-2-0.2-2.8-0.5c-0.8-0.3-1.6-0.8-2.2-1.5c-0.6-0.6-1.1-1.4-1.4-2.2c-0.3-0.9-0.5-1.8-0.5-2.9s0.2-2,0.5-2.9
		c0.3-0.9,0.8-1.6,1.4-2.2c0.6-0.6,1.3-1.1,2.2-1.5c0.8-0.3,1.8-0.5,2.8-0.5c1,0,2,0.2,2.8,0.5c0.8,0.3,1.6,0.8,2.2,1.5
		c0.6,0.6,1.1,1.4,1.4,2.2C135.2,152.2,135.4,153.2,135.4,154.2z M133.4,154.2c0-0.9-0.1-1.6-0.3-2.3c-0.2-0.7-0.6-1.3-1-1.7
		c-0.4-0.5-0.9-0.8-1.6-1.1c-0.6-0.3-1.3-0.4-2-0.4c-0.7,0-1.4,0.1-2,0.4c-0.6,0.3-1.1,0.6-1.6,1.1c-0.4,0.5-0.8,1-1,1.7
		s-0.3,1.4-0.3,2.3s0.1,1.6,0.3,2.3s0.6,1.2,1,1.7c0.4,0.5,0.9,0.8,1.6,1.1c0.6,0.2,1.3,0.4,2,0.4c0.8,0,1.4-0.1,2-0.4
		c0.6-0.2,1.1-0.6,1.6-1.1c0.4-0.5,0.8-1,1-1.7C133.3,155.9,133.4,155.1,133.4,154.2z"/>
	<path class="st3" d="M140.2,147.4c0.1,0,0.2,0.1,0.3,0.3l8.1,10.5c0-0.2,0-0.3,0-0.5c0-0.2,0-0.3,0-0.5v-9.8h1.6v13.9h-1
		c-0.1,0-0.3,0-0.4-0.1c-0.1-0.1-0.2-0.1-0.3-0.3l-8-10.5c0,0.2,0,0.3,0,0.5c0,0.2,0,0.3,0,0.4v9.9h-1.6v-13.9h1
		C140,147.3,140.2,147.3,140.2,147.4z"/>
	<path class="st3" d="M163.1,147.3v1.5h-6.7v4.9h5.7v1.5h-5.7v6h-1.9v-13.9H163.1z"/>
	<path class="st3" d="M175,147.3v1.5h-6.7v4.6h5.4v1.5h-5.4v4.7h6.7v1.5h-8.6v-13.9H175z"/>
	<path class="st3" d="M180.7,155.4v5.8h-1.9v-13.9h3.9c0.9,0,1.6,0.1,2.3,0.3c0.6,0.2,1.2,0.4,1.6,0.8s0.7,0.7,0.9,1.2
		c0.2,0.5,0.3,1,0.3,1.6c0,0.5-0.1,1-0.2,1.4s-0.4,0.8-0.7,1.1c-0.3,0.3-0.7,0.6-1.1,0.9s-0.9,0.4-1.4,0.5c0.2,0.1,0.4,0.3,0.6,0.6
		l4.1,5.5h-1.7c-0.3,0-0.6-0.1-0.8-0.4l-3.6-5c-0.1-0.2-0.2-0.3-0.4-0.3c-0.1-0.1-0.3-0.1-0.6-0.1H180.7z M180.7,154h2
		c0.5,0,1-0.1,1.5-0.2s0.8-0.3,1-0.6s0.5-0.5,0.6-0.9c0.1-0.3,0.2-0.7,0.2-1.1c0-0.8-0.3-1.5-0.8-1.9c-0.5-0.4-1.4-0.6-2.4-0.6h-2.1
		V154z"/>
	<path class="st3" d="M200.7,147.3v1.5H194v4.6h5.4v1.5H194v4.7h6.7v1.5h-8.6v-13.9H200.7z"/>
	<path class="st3" d="M205.7,147.4c0.1,0,0.2,0.1,0.3,0.3l8.1,10.5c0-0.2,0-0.3,0-0.5c0-0.2,0-0.3,0-0.5v-9.8h1.6v13.9h-1
		c-0.1,0-0.3,0-0.4-0.1c-0.1-0.1-0.2-0.1-0.3-0.3l-8-10.5c0,0.2,0,0.3,0,0.5c0,0.2,0,0.3,0,0.4v9.9h-1.6v-13.9h1
		C205.5,147.3,205.6,147.3,205.7,147.4z"/>
	<path class="st3" d="M229.7,158.3c0.1,0,0.2,0,0.3,0.1l0.7,0.8c-0.6,0.7-1.3,1.2-2.1,1.5c-0.8,0.4-1.8,0.6-2.9,0.6
		c-1,0-1.9-0.2-2.7-0.5c-0.8-0.3-1.5-0.8-2.1-1.5c-0.6-0.6-1-1.4-1.3-2.2c-0.3-0.9-0.5-1.8-0.5-2.9s0.2-2,0.5-2.9
		c0.3-0.9,0.8-1.6,1.4-2.2c0.6-0.6,1.3-1.1,2.2-1.5c0.9-0.3,1.8-0.5,2.8-0.5c1,0,1.9,0.2,2.6,0.5c0.7,0.3,1.4,0.7,2,1.3l-0.6,0.9
		c0,0.1-0.1,0.1-0.2,0.2c-0.1,0-0.1,0.1-0.3,0.1c-0.1,0-0.2,0-0.3-0.1s-0.2-0.1-0.3-0.2c-0.1-0.1-0.3-0.2-0.5-0.3s-0.4-0.2-0.6-0.3
		s-0.5-0.2-0.8-0.2c-0.3-0.1-0.7-0.1-1.1-0.1c-0.7,0-1.4,0.1-2,0.4c-0.6,0.3-1.1,0.6-1.6,1.1s-0.8,1-1,1.7s-0.4,1.4-0.4,2.3
		c0,0.9,0.1,1.6,0.4,2.3s0.6,1.3,1,1.7s0.9,0.8,1.5,1.1c0.6,0.2,1.2,0.4,1.9,0.4c0.4,0,0.8,0,1.1-0.1c0.3,0,0.6-0.1,0.9-0.2
		s0.5-0.2,0.8-0.4c0.2-0.2,0.5-0.3,0.7-0.6C229.5,158.4,229.6,158.3,229.7,158.3z"/>
	<path class="st3" d="M242.8,147.3v1.5h-6.7v4.6h5.4v1.5h-5.4v4.7h6.7v1.5h-8.6v-13.9H242.8z"/>
</g>
</svg>
